<svg xmlns="http://www.w3.org/2000/svg" id="Layer_1" data-name="Layer 1" viewBox="0 0 24 24" width="24" height="24"><path d="m16.395,10.122l-5.192-2.843c-.673-.379-1.473-.372-2.138.017-.667.39-1.064,1.083-1.064,1.855v5.699c0,.772.397,1.465,1.064,1.855.34.199.714.297,1.087.297.358,0,.716-.091,1.041-.274l5.212-2.854c.687-.386,1.096-1.086,1.096-1.873s-.409-1.487-1.105-1.878Zm-.961,2.003l-5.212,2.855c-.019.01-.077.042-.147-.001-.074-.043-.074-.107-.074-.128v-5.699c0-.021,0-.085.074-.128.027-.016.052-.021.074-.021.036,0,.065.016.083.026l5.192,2.844c.019.011.076.043.076.13s-.058.119-.066.125ZM12,0C5.383,0,0,5.383,0,12s5.383,12,12,12,12-5.383,12-12S18.617,0,12,0Zm0,22c-5.514,0-10-4.486-10-10S6.486,2,12,2s10,4.486,10,10-4.486,10-10,10Z" fill="#9c27b0"></path></svg>